inDegrees=yes
name=lift_forw_l_res.mot
DataType=double
version=3
OpenSimVersion=4.4-2022-07-23-0e9fedc
endheader
time	pelvis_tilt	pelvis_list	pelvis_rotation	pelvis_tx	pelvis_ty	pelvis_tz	hip_flexion_r	hip_adduction_r	hip_rotation_r	knee_angle_r	knee_angle_r_beta	ankle_angle_r	subtalar_angle_r	mtp_angle_r	hip_flexion_l	hip_adduction_l	hip_rotation_l	knee_angle_l	knee_angle_l_beta	ankle_angle_l	subtalar_angle_l	mtp_angle_l	lumbar_extension	lumbar_bending	lumbar_rotation	arm_flex_r	arm_add_r	arm_rot_r	elbow_flex_r	pro_sup_r	wrist_flex_r	wrist_dev_r	arm_flex_l	arm_add_l	arm_rot_l	elbow_flex_l	pro_sup_l	wrist_flex_l	wrist_dev_l
50	-0.9259536865905321	0.1670886777823725	88.83216904650547	0	0.9399999999999999	0	44.1668844492012	-10.01863858835064	0	59.84771833463152	1.044539734745497	-5.002982947325664	0	0	44.1668844492012	-10.01863858835064	0	59.84771833463152	1.044539734745497	-5.002982947325664	0	0	-1.132454246876293	-2.06440837184837	1.522661067990448	0	-12.69392609210623	0	75.72612773998338	45.07042465610951	0	5.201678857691882e-37	-0.6654661139060307	3.149246197803251	1.633344052232364	3.15633839027052	45.07042465610951	0	5.201678857691882e-37
51	-0.9309615096850333	0.1716601338001693	88.83061600557291	0	0.9399999999999999	0	44.16710496954123	-10.01862130855655	0	59.8477499319411	1.044540286222585	-5.002979337980602	0	0	44.16710496954123	-10.01862130855655	0	59.8477499319411	1.044540286222585	-5.002979337980602	0	0	-1.123968834485288	-2.06575460061665	1.525533423615847	0	-12.69423822489839	0	75.72593559177453	45.07037303304605	0	0	-0.7798915121301476	3.501662576141224	1.455618900730593	2.648678239564419	45.07037303304605	0	0
52	-0.9224342900553848	0.1815698356160357	88.83027139810213	0	0.9399999999999999	0	44.16736064393668	-10.01860156257764	0	59.84778697071202	1.044540932671088	-5.002975225869996	0	0	44.16736064393668	-10.01860156257764	0	59.84778697071202	1.044540932671088	-5.002975225869996	0	0	-0.453719893674261	-1.744341557748756	1.848047095584944	0	-12.69460300469931	0	75.72571281225812	45.07031388504193	0	0	-1.575180130891718	4.108763983257686	2.115744737804846	2.409072922166524	45.07031388504193	0	0
53	-0.3737711668732315	0.5528822333585157	89.72553851638722	0	0.9399999999999999	0	44.16770650074617	-10.0185745329265	0	59.84783657666829	1.044541798458353	-5.002969584935236	0	0	44.16770650074617	-10.0185745329265	0	59.84783657666829	1.044541798458353	-5.002969584935236	0	0	-0.8486920858296472	-1.193569939060362	0.9561330199913692	0	-12.69509300072309	0	75.72541145332542	45.07023308227593	0	0	-1.630414956742548	5.250213479682968	1.922361581188313	1.434493369070271	45.07023308227593	0	0
54	-0.3902820223281055	0.5364578209648885	89.72169506530695	0	0.9399999999999999	0	44.18991777257618	-10.017001945611	0	59.85104128421846	1.044597731156667	-5.002654341169491	0	0	44.18991777257618	-10.017001945611	0	59.85104128421846	1.044597731156667	-5.002654341169491	0	0	-0.8210016107518308	-1.211263994947402	0.9676521837014034	0	-12.72715761007816	0	75.70605780569761	45.06539648030284	0	0	-1.790449390135656	5.204132401016701	1.939685279239212	1.727946561154506	45.06539648030284	0	0
55	-0.9234477147919109	0.1770651968898388	88.83835452946327	0	0.9399999999999999	0	44.19010525934622	-10.01698849932521	0	59.85106884157931	1.044598212123347	-5.002651614539882	0	0	44.19010525934622	-10.01698849932521	0	59.85106884157931	1.044598212123347	-5.002651614539882	0	0	-0.4415834285637052	-1.740958310341318	1.822760053305003	0	-12.72743037440126	0	75.70589444035295	45.06535540710399	0	0	-1.617236384652555	5.263834123212393	1.904027012976753	1.419419460369089	45.06535540710399	0	0
56	-0.901332658807613	0.1636063597680839	88.80727544507134	0	0.9399999999999999	0	44.19019298813	-10.01698208598258	0	59.8510815398942	1.044598433750752	-5.002650309292302	0	0	44.19019298813	-10.01698208598258	0	59.8510815398942	1.044598433750752	-5.002650309292302	0	0	-0.4407256241528809	-1.698994184214426	1.886906329577033	0	-12.7275566180369	0	75.7058179985379	45.06533588254004	0	0	-1.491595811189086	4.96178786520387	1.585652094875933	1.625202628256532	45.06533588254004	0	0
57	-0.3790734951015006	0.5680774617066753	89.7186858322047	0	0.9399999999999999	0	44.19042281624773	-10.01696541285625	0	59.85111499458453	1.044599017645248	-5.002646921502738	0	0	44.19042281624773	-10.01696541285625	0	59.85111499458453	1.044599017645248	-5.002646921502738	0	0	-0.8628726067914768	-1.202546145981235	0.9698400387789851	0	-12.72788870665299	0	75.70561773946258	45.06528505072389	0	0	-1.424417625361929	4.582256133775538	1.760333816785112	2.148629564790652	45.06528505072389	0	0
58	-0.3783962330138322	0.5463110762035333	89.72571726707834	0	0.9399999999999999	0	44.1907234098006	-10.01694334620753	0	59.85115832023484	1.044599773820497	-5.002642428150514	0	0	44.1907234098006	-10.01694334620753	0	59.85115832023484	1.044599773820497	-5.002642428150514	0	0	-0.84677202123852	-1.197749392176056	0.9564826850766479	0	-12.72832003737577	0	75.70535581959473	45.06521791173936	0	0	-1.057845522783295	3.227165065135031	1.192449316829975	1.786262346986738	45.06521791173936	0	0
59	-0.9285870553924235	0.1748056339910507	88.83548320947982	0	0.9399999999999999	0	44.19368247508608	-10.01679170701374	0	59.85169532075977	1.044609146247742	-5.002613950958338	0	0	44.19368247508608	-10.01679170701374	0	59.85169532075977	1.044609146247742	-5.002613950958338	0	0	-0.4359243716593241	-1.750988904023645	1.842087962846853	0	-12.73334192354586	0	75.70277741937836	45.06472281321791	0	0	0.181502413068739	-0.2742197981794919	1.704268363222729	1.548186127347893	45.06472281321791	0	0
60	-0.9241914751613337	0.1987916720167504	88.8303984629831	0	0.9399999999999999	0	44.19757302903528	-10.01659644142272	0	59.85240608372482	1.044621551401683	-5.002577513306072	0	0	44.19757302903528	-10.01659644142272	0	59.85240608372482	1.044621551401683	-5.002577513306072	0	0	-0.4813359355128125	-1.742682537468113	1.849343348980018	0	-12.73998914715501	0	75.69938735825524	45.06408210588514	0	0	0.7714599427227056	-2.196715196489512	2.794655013105905	4.063463850088421	45.06408210588514	0	0
61	-0.9226136627763988	0.209336943753563	88.82907804742278	0	0.9399999999999999	0	44.2058054004543	-10.01618435053461	0	59.85390645582319	1.044647737834805	-5.002500733916286	0	0	44.2058054004543	-10.01618435053461	0	59.85390645582319	1.044647737834805	-5.002500733916286	0	0	-0.4949048733087875	-1.743837648471119	1.854538249430989	0	-12.75405574257658	0	75.6922140242112	45.06272865293372	0	0	1.281119278093525	-3.665951336801101	3.415463131505251	8.972646936813144	45.06272865293372	0	0
62	-0.3800843496341094	0.5513748377700983	89.72200784893822	0	0.9399999999999999	0	44.21326245319	-10.01581017401943	0	59.85525541674802	1.044671281644424	-5.00243102963928	0	0	44.21326245319	-10.01581017401943	0	59.85525541674802	1.044671281644424	-5.00243102963928	0	0	-0.8477660370845937	-1.196848603938742	0.9549556061069141	0	-12.76677344144526	0	75.68571627062443	45.06149991526024	0	0	2.059578755104812	-5.137881177105727	4.557651403886736	14.89174292570523	45.06149991526024	0	0
63	-0.9231990891022555	0.1905153430285436	88.83276051964108	0	0.9399999999999999	0	44.21867602952893	-10.01554180095779	0	59.85623508587956	1.044688380096349	-5.002381239119399	0	0	44.21867602952893	-10.01554180095779	0	59.85623508587956	1.044688380096349	-5.002381239119399	0	0	-0.4659401269791023	-1.745997838888492	1.847574882617771	0	-12.77603806219291	0	75.6809991124104	45.06061592181985	0	0	4.6641370605165	-7.576392519673753	6.4454690742776	19.15446960918885	45.06061592181985	0	0
64	-0.9280083172407103	0.1907176943744886	88.82630452890082	0	0.9399999999999999	0	44.22425387058995	-10.01526754760421	0	59.85724367858318	1.044705983359839	-5.002330511199544	0	0	44.22425387058995	-10.01526754760421	0	59.85724367858318	1.044705983359839	-5.002330511199544	0	0	-0.4675414218815285	-1.746023314353	1.851798721442726	0	-12.78560320908598	0	75.67613881991996	45.05971057491299	0	0	6.757902723813701	-8.347516481997367	7.730332337563977	24.2745671207595	45.05971057491299	0	0
65	-0.3763737429939096	0.5564804309672513	89.72649677162097	0	0.9399999999999999	0	44.22877539555346	-10.01505160365019	0	59.85807009620795	1.044720407068388	-5.002290889799299	0	0	44.22877539555346	-10.01505160365019	0	59.85807009620795	1.044720407068388	-5.002290889799299	0	0	-0.8484369246483919	-1.195992338673254	0.9504093729226771	0	-12.79343730607407	0	75.67219895226881	45.05899303169479	0	0	10.32472628822698	-8.99871380694975	9.144252937729918	27.49412127727622	45.05899303169479	0	0
